<svg width="24" height="24" viewBox="0 0 24 24" fill="none" xmlns="http://www.w3.org/2000/svg">
<path fill-rule="evenodd" clip-rule="evenodd" d="M14.4242 5.09441C14.7755 5.25899 15 5.61198 15 6V9.21922L18.2425 10.0299C18.7783 10.1638 19.1041 10.7067 18.9701 11.2425C18.8362 11.7783 18.2933 12.1041 17.7575 11.9701L13.7575 10.9701C13.3123 10.8589 13 10.4589 13 10V8.13504L9.81481 10.7894L14.4472 13.1056C14.7088 13.2364 14.9 13.4751 14.9705 13.7589C15.041 14.0428 14.9837 14.3433 14.8137 14.5812L12.3137 18.0812C11.9927 18.5307 11.3682 18.6347 10.9188 18.3137C10.4693 17.9927 10.3653 17.3682 10.6863 16.9188L12.5061 14.3711L7.55279 11.8944C7.25094 11.7435 7.04558 11.4505 7.00667 11.1153C6.96776 10.7801 7.10056 10.4478 7.35982 10.2318L13.3598 5.23178C13.6579 4.98338 14.0728 4.92983 14.4242 5.09441Z" fill="black"/>
<path fill-rule="evenodd" clip-rule="evenodd" d="M20 5C20 3.89543 19.1046 3 18 3C16.8954 3 16 3.89543 16 5C16 6.10457 16.8954 7 18 7C19.1046 7 20 6.10457 20 5Z" fill="black"/>
<path fill-rule="evenodd" clip-rule="evenodd" d="M18 16C16.8954 16 16 16.8954 16 18C16 19.1046 16.8954 20 18 20C19.1046 20 20 19.1046 20 18C20 16.8954 19.1046 16 18 16ZM14 18C14 15.7909 15.7909 14 18 14C20.2091 14 22 15.7909 22 18C22 20.2091 20.2091 22 18 22C15.7909 22 14 20.2091 14 18Z" fill="black"/>
<path fill-rule="evenodd" clip-rule="evenodd" d="M6 16C4.89543 16 4 16.8954 4 18C4 19.1046 4.89543 20 6 20C7.10457 20 8 19.1046 8 18C8 16.8954 7.10457 16 6 16ZM2 18C2 15.7909 3.79086 14 6 14C8.20914 14 10 15.7909 10 18C10 20.2091 8.20914 22 6 22C3.79086 22 2 20.2091 2 18Z" fill="black"/>
</svg>
